<?xml version="1.0" encoding="UTF-8" standalone="no"?>
<svg
   xmlns:dc="http://purl.org/dc/elements/1.1/"
   xmlns:cc="http://creativecommons.org/ns#"
   xmlns:rdf="http://www.w3.org/1999/02/22-rdf-syntax-ns#"
   xmlns:svg="http://www.w3.org/2000/svg"
   xmlns="http://www.w3.org/2000/svg"
   xmlns:sodipodi="http://sodipodi.sourceforge.net/DTD/sodipodi-0.dtd"
   xmlns:inkscape="http://www.inkscape.org/namespaces/inkscape"
   xml:space="preserve"
   id="svg4768"
   viewBox="0.171 0.201 512 512"
   height="48"
   width="48"
   version="1.0"
   sodipodi:docname="Emacs.svg"
   inkscape:version="0.92.5 (2060ec1f9f, 2020-04-08)"
   inkscape:export-filename="/home/rui/Sync/code/elisp/emacs-vaporwave-icon/Emacs.png"
   inkscape:export-xdpi="275.77838"
   inkscape:export-ydpi="275.77838"><title
     id="title4700">Emacs Vaporwave icon</title><sodipodi:namedview
     pagecolor="#ffffff"
     bordercolor="#666666"
     borderopacity="1"
     objecttolerance="10"
     gridtolerance="10"
     guidetolerance="10"
     inkscape:pageopacity="0"
     inkscape:pageshadow="2"
     inkscape:window-width="1440"
     inkscape:window-height="841"
     id="namedview3893"
     showgrid="false"
     inkscape:zoom="12.833333"
     inkscape:cx="4.4805194"
     inkscape:cy="26.844156"
     inkscape:window-x="0"
     inkscape:window-y="27"
     inkscape:window-maximized="1"
     inkscape:current-layer="svg4768" /><metadata
     id="metadata70"><rdf:RDF><cc:Work
         rdf:about=""><dc:format>image/svg+xml</dc:format><dc:type
           rdf:resource="http://purl.org/dc/dcmitype/StillImage" /><dc:title>Emacs Vaporwave icon</dc:title><dc:creator><cc:Agent><dc:title>Rui Vieira</dc:title></cc:Agent></dc:creator><dc:rights><cc:Agent><dc:title>GPL3</dc:title></cc:Agent></dc:rights><dc:source>https://git.sr.ht/~ruivieira/emacs-vaporwave-icon</dc:source><cc:license
           rdf:resource="https://www.gnu.org/licenses/gpl-3.0.en.html" /></cc:Work></rdf:RDF></metadata><!-- Gnu Emacs Icon
   Copyright (C) 2008-2017 Free Software Foundation, Inc.

   Author: Nicolas Petton <nicolas@petton.fr>

   This file is part of GNU Emacs.

   GNU Emacs is free software: you can redistribute it and/or modify
   it under the terms of the GNU General Public License as published by
   the Free Software Foundation; either version 3 of the License, or
   (at your option) any later version.

   GNU Emacs is distributed in the hope that it will be useful,
   but WITHOUT ANY WARRANTY; without even the implied warranty of
   MERCHANTABILITY or FITNESS FOR A PARTICULAR PURPOSE.  See the
   GNU General Public License for more details.

   You should have received a copy of the GNU General Public License
   along with GNU Emacs.  If not, see <http://www.gnu.org/licenses/>.

--><!-- Created with Inkscape (http://www.inkscape.org/) --><defs
     id="defs4770" /><rect
     style="fill:none;display:none"
     id="rect4772"
     y="0.20100001"
     x="0.171"
     height="512"
     width="512" /><g
     style="display:none"
     id="g4788"><g
       style="display:inline"
       id="g4790" /></g><g
     style="display:inline"
     id="g4806"><g
       style="display:inline"
       id="g4808"><path
         style="display:none;fill:#050505"
         id="path4810"
         d="m 349.098,256.651 c -0.265,-0.254 37.637,27.605 39.421,25.012 6.362,-9.252 82.046,-93.137 84.784,-116.236 0.242,-2.003 -0.516,-4.096 -0.516,-4.096 0,0 -1.19,-0.144 -6.325,-4.314 -2.692,-2.192 -5.483,-4.581 -5.483,-4.581 -16.054,0.998 -57.885,41.559 -111.062,103.568"
         inkscape:connector-curvature="0" /></g></g><path
     d="m 488.23812,256.89456 c 0,130.06121 -104.3692,235.49665 -233.1151,235.49665 -128.7459,0 -233.115201,-105.43544 -233.115201,-235.49665 0,-130.06123 104.369301,-235.49666 233.115201,-235.49666 128.7459,0 233.1151,105.43543 233.1151,235.49666 z"
     id="path4235"
     style="display:inline;opacity:1;fill:#ff00b5;fill-opacity:1;stroke:#000000;stroke-width:8;stroke-miterlimit:4;stroke-dasharray:none;stroke-opacity:1"
     inkscape:connector-curvature="0" /><path
     d="m 163.23263,446.35946 c 0,0 23.04857,1.59456 52.69954,-0.96105 12.00788,-1.03496 57.59861,-5.41432 91.6839,-12.72465 0,0 41.55819,-8.6979 63.79137,-16.71059 23.26343,-8.38405 35.92254,-15.49977 41.62055,-25.58251 -0.24849,-2.06588 1.75435,-9.39185 -8.97375,-13.79237 -27.42767,-11.2505 -59.23724,-9.21553 -122.18051,-10.52063 -69.80162,-2.34547 -93.02184,-13.77162 -105.39114,-22.97424 -11.86134,-9.33568 -5.89686,-35.16361 44.92619,-57.9141 25.60104,-12.11495 125.95999,-34.4721 125.95999,-34.4721 -33.79909,-16.3382 -96.82375,-45.06022 -109.77911,-51.26251 -11.36262,-5.43966 -29.54622,-13.63028 -33.48778,-23.53984 -4.46889,-9.51348 10.55399,-17.70855 18.94564,-20.05538 27.0261,-7.62369 65.17871,-12.36207 99.90203,-12.89403 17.4538,-0.26741 20.28686,-1.36562 20.28686,-1.36562 24.08292,-3.9068 39.93685,-20.02042 33.33143,-45.539645 -5.92992,-26.04846 -37.20479,-41.354265 -66.92512,-36.05556 -27.98758,4.989829 -95.44493,24.152374 -95.44493,24.152374 83.38228,-0.705761 97.33823,0.655229 103.57116,9.177597 3.68093,5.033064 -1.67261,11.934184 -23.91033,15.486004 -24.20985,3.86684 -74.53546,8.52352 -74.53546,8.52352 -48.27829,2.80395 -82.28547,2.99162 -92.48506,24.1102 -6.66346,13.79703 7.1059,25.99461 13.14102,33.6297 25.50331,27.73694 62.34121,42.69622 86.05315,53.71234 8.92179,4.14487 35.09932,11.97231 35.09932,11.97231 -76.92574,-4.13769 -132.41712,18.96269 -164.967941,45.55959 -36.816066,33.30231 -20.529741,72.99764 54.896211,97.43914 44.5496,14.43611 66.64335,21.22541 133.09578,15.37333 39.14119,-2.0632 45.31141,-0.83539 45.70166,2.30551 0.5494,4.42212 -43.47463,15.40682 -55.49361,18.79722 -30.57648,8.62524 -110.72984,26.04152 -111.13106,26.12599 z"
     id="path4237"
     style="display:inline;fill:#00fff7;fill-opacity:1;fill-rule:evenodd;stroke:#000000;stroke-width:8;stroke-linecap:butt;stroke-linejoin:round;stroke-miterlimit:4;stroke-dasharray:none;stroke-opacity:1"
     inkscape:connector-curvature="0" /></svg>