<?xml version="1.0" encoding="UTF-8" standalone="no"?>
<svg
   xmlns:dc="http://purl.org/dc/elements/1.1/"
   xmlns:cc="http://creativecommons.org/ns#"
   xmlns:rdf="http://www.w3.org/1999/02/22-rdf-syntax-ns#"
   xmlns:svg="http://www.w3.org/2000/svg"
   xmlns="http://www.w3.org/2000/svg"
   xmlns:sodipodi="http://sodipodi.sourceforge.net/DTD/sodipodi-0.dtd"
   xmlns:inkscape="http://www.inkscape.org/namespaces/inkscape"
   xml:space="preserve"
   id="svg4768"
   viewBox="0.171 0.201 512 512"
   height="48"
   width="48"
   version="1.0"
   sodipodi:docname="EmacsNew.svg"
   inkscape:version="0.92.5 (2060ec1f9f, 2020-04-08)"
   inkscape:export-filename="/home/rui/Sync/code/elisp/emacs-vaporwave-icon/EmacsNew.png"
   inkscape:export-xdpi="548.40002"
   inkscape:export-ydpi="548.40002"><title
   id="title4700">Emacs Vaporwave icon</title><sodipodi:namedview
   pagecolor="#ffffff"
   bordercolor="#666666"
   borderopacity="1"
   objecttolerance="10"
   gridtolerance="10"
   guidetolerance="10"
   inkscape:pageopacity="0"
   inkscape:pageshadow="2"
   inkscape:window-width="1440"
   inkscape:window-height="841"
   id="namedview3893"
   showgrid="false"
   inkscape:zoom="12.833333"
   inkscape:cx="10.587175"
   inkscape:cy="29.388961"
   inkscape:window-x="0"
   inkscape:window-y="27"
   inkscape:window-maximized="1"
   inkscape:current-layer="svg4768" /><metadata
   id="metadata70"><rdf:RDF><cc:Work
       rdf:about=""><dc:format>image/svg+xml</dc:format><dc:type
         rdf:resource="http://purl.org/dc/dcmitype/StillImage" /><dc:title>Emacs Vaporwave icon</dc:title><dc:creator><cc:Agent><dc:title>Rui Vieira</dc:title></cc:Agent></dc:creator><dc:rights><cc:Agent><dc:title>GPL3</dc:title></cc:Agent></dc:rights><dc:source>https://git.sr.ht/~ruivieira/emacs-vaporwave-icon</dc:source><cc:license
         rdf:resource="https://www.gnu.org/licenses/gpl-3.0.en.html" /></cc:Work></rdf:RDF></metadata><!-- Gnu Emacs Icon
   Copyright (C) 2008-2017 Free Software Foundation, Inc.

   Author: Nicolas Petton <nicolas@petton.fr>

   This file is part of GNU Emacs.

   GNU Emacs is free software: you can redistribute it and/or modify
   it under the terms of the GNU General Public License as published by
   the Free Software Foundation; either version 3 of the License, or
   (at your option) any later version.

   GNU Emacs is distributed in the hope that it will be useful,
   but WITHOUT ANY WARRANTY; without even the implied warranty of
   MERCHANTABILITY or FITNESS FOR A PARTICULAR PURPOSE.  See the
   GNU General Public License for more details.

   You should have received a copy of the GNU General Public License
   along with GNU Emacs.  If not, see <http://www.gnu.org/licenses/>.

--><!-- Created with Inkscape (http://www.inkscape.org/) --><defs
   id="defs4770" /><rect
   style="fill:none;display:none"
   id="rect4772"
   y="0.20100001"
   x="0.171"
   height="512"
   width="512" /><g
   style="display:none"
   id="g4788"><g
     style="display:inline"
     id="g4790" /></g><g
   style="display:inline"
   id="g4806"><g
     style="display:inline"
     id="g4808"><path
       style="display:none;fill:#050505"
       id="path4810"
       d="m 349.098,256.651 c -0.265,-0.254 37.637,27.605 39.421,25.012 6.362,-9.252 82.046,-93.137 84.784,-116.236 0.242,-2.003 -0.516,-4.096 -0.516,-4.096 0,0 -1.19,-0.144 -6.325,-4.314 -2.692,-2.192 -5.483,-4.581 -5.483,-4.581 -16.054,0.998 -57.885,41.559 -111.062,103.568"
       inkscape:connector-curvature="0" /></g></g><path
   d="m 488.23812,256.89456 c 0,130.06121 -104.3692,235.49665 -233.1151,235.49665 -128.7459,0 -233.115201,-105.43544 -233.115201,-235.49665 0,-130.06123 104.369301,-235.49666 233.115201,-235.49666 128.7459,0 233.1151,105.43543 233.1151,235.49666 z"
   id="path4235"
   style="display:inline;opacity:1;fill:#ff00b5;fill-opacity:1;stroke:#000000;stroke-width:11.78666667;stroke-miterlimit:4;stroke-dasharray:none;stroke-opacity:1"
   inkscape:connector-curvature="0" /><g
   aria-label="E"
   style="font-style:normal;font-weight:normal;font-size:471.14572144px;line-height:1.25;font-family:sans-serif;letter-spacing:0px;word-spacing:0px;fill:#00fff7;fill-opacity:1;stroke:#000000;stroke-width:11.78666687;stroke-miterlimit:4;stroke-dasharray:none;stroke-opacity:1"
   id="text830"><path
     d="m 122.96659,388.5798 c -0.94229,3.76916 -1.41343,8.00948 -1.41343,10.83635 0,9.89406 7.06718,14.60552 23.08614,14.60552 h 163.95871 c 23.55728,0 29.21103,-3.76917 33.92249,-24.97073 l 13.66322,-59.8355 h -13.19208 c -5.1826,15.54781 -11.30749,18.84583 -38.1628,18.84583 H 232.2724 l 16.4901,-72.55644 h 65.48926 c 23.55728,0 28.73988,-3.29802 33.45134,-24.49958 l 8.95177,-38.16281 h -93.28685 l 11.77864,-53.23946 h 71.61415 c 23.55729,0 28.73989,-3.76917 33.92249,-24.97073 l 8.00948,-34.864779 H 170.08116 l -2.82687,11.778639 c 10.36521,1.88459 15.07666,6.59604 15.07666,14.60552 0,2.82688 -0.47114,5.1826 -2.35573,13.19208 z"
     style="font-style:normal;font-variant:normal;font-weight:normal;font-stretch:normal;font-family:'Crillee Bold Italic Std';-inkscape-font-specification:'Crillee Bold Italic Std';fill:#00fff7;fill-opacity:1;stroke:#000000;stroke-width:11.78666687;stroke-miterlimit:4;stroke-dasharray:none;stroke-opacity:1"
     id="path1444"
     inkscape:connector-curvature="0" /></g>
</svg>